<svg 
 xmlns="http://www.w3.org/2000/svg"
 xmlns:xlink="http://www.w3.org/1999/xlink"
 width="0.33in" height="0.33in">
<path fill-rule="evenodd"  fill="rgb(255, 255, 255)"
 d="M15.608,0.591 C7.142,0.591 0.256,7.471 0.256,15.931 C0.256,24.391 7.142,31.277 15.608,31.277 C24.062,31.277 30.948,24.391 30.948,15.931 C30.948,7.471 24.062,0.591 15.608,0.591 ZM19.625,8.279 C19.408,8.065 19.062,8.065 18.844,8.279 L11.197,15.931 L18.844,23.589 C18.953,23.696 19.093,23.749 19.232,23.749 C19.378,23.749 19.518,23.696 19.625,23.589 C19.838,23.375 19.838,23.025 19.625,22.811 L12.750,15.931 L19.625,9.057 C19.838,8.840 19.838,8.492 19.625,8.279 Z"/>
</svg>