<svg 
 xmlns="http://www.w3.org/2000/svg"
 xmlns:xlink="http://www.w3.org/1999/xlink"
 width="0.125in" height="0.139in">
<path fill-rule="evenodd"  fill="rgb(255, 255, 255)"
 d="M0.410,0.957 C1.202,0.957 1.893,1.157 2.480,1.552 C3.065,1.949 3.359,2.590 3.359,3.478 L3.359,9.042 L1.267,9.042 L1.267,3.715 C1.267,3.367 1.186,3.137 1.028,3.026 C0.870,2.915 0.664,2.860 0.410,2.860 L0.410,0.957 ZM5.642,0.957 C6.434,0.957 7.123,1.157 7.710,1.552 C8.297,1.949 8.590,2.590 8.590,3.478 L8.590,9.042 L6.498,9.042 L6.498,3.715 C6.498,3.367 6.418,3.137 6.260,3.026 C6.101,2.915 5.894,2.860 5.642,2.860 L5.642,0.957 Z"/>
</svg>