<svg xmlns="http://www.w3.org/2000/svg" xmlns:xlink="http://www.w3.org/1999/xlink" width="129.688" height="129.655" viewBox="0 0 129.688 129.655">
  <metadata><?xpacket begin="﻿" id="W5M0MpCehiHzreSzNTczkc9d"?>
<x:xmpmeta xmlns:x="adobe:ns:meta/" x:xmptk="Adobe XMP Core 5.6-c142 79.160924, 2017/07/13-01:06:39        ">
   <rdf:RDF xmlns:rdf="http://www.w3.org/1999/02/22-rdf-syntax-ns#">
      <rdf:Description rdf:about=""/>
   </rdf:RDF>
</x:xmpmeta>
                                                                                                    
                                                                                                    
                                                                                                    
                                                                                                    
                                                                                                    
                                                                                                    
                                                                                                    
                                                                                                    
                                                                                                    
                                                                                                    
                                                                                                    
                                                                                                    
                                                                                                    
                                                                                                    
                                                                                                    
                                                                                                    
                                                                                                    
                                                                                                    
                                                                                                    
                                                                                                    
                           
<?xpacket end="w"?></metadata>
<defs>
    <style>
      .cls-1 {
        fill-rule: evenodd;
        fill: url(#linear-gradient);
      }
    </style>
    <linearGradient id="linear-gradient" x1="1920" y1="8004.059" x2="0" y2="490.941" gradientUnits="userSpaceOnUse">
      <stop offset="0.466" stop-color="#6dffc6"/>
      <stop offset="0.534" stop-color="#3fd2ce"/>
    </linearGradient>
  </defs>
  <path id="Composite_Path" data-name="Composite Path" class="cls-1" d="M508.1,974.778h8.868l0.263-1.194h-9.394Zm-0.79-3.59H517.75l1.057-4.783h-12.55Zm5.22-42.973a16.712,16.712,0,0,0-10.044,30.1,1.116,1.116,0,0,1,.255.249A8.73,8.73,0,0,1,505.879,964h5.456V947.25a2.387,2.387,0,0,0-.7-1.7,2.363,2.363,0,0,0-1.678-.7h-0.011a1.2,1.2,0,1,1,0-2.4h0.016a4.76,4.76,0,0,1,3.373,1.4c0.085,0.092.125,0.212,0.2,0.309,0.08-.094.115-0.208,0.2-0.294a4.742,4.742,0,0,1,3.394-1.412,1.2,1.2,0,1,1,0,2.4,2.378,2.378,0,0,0-2.381,2.39V964h5.438a8.674,8.674,0,0,1,3.142-5.428,1.064,1.064,0,0,1,.253-0.266,16.6,16.6,0,0,0,6.721-13.333A16.783,16.783,0,0,0,512.525,928.215Zm-0.3-42.589a64.832,64.832,0,1,0,64.834,64.834A64.834,64.834,0,0,0,512.221,885.626Zm-3.342,92.739h7.3l0.251-1.188h-7.815Z" transform="translate(-447.375 -885.625)"/>
</svg>
