<svg xmlns="http://www.w3.org/2000/svg" xmlns:xlink="http://www.w3.org/1999/xlink" width="129.66" height="129.655" viewBox="0 0 129.66 129.655">
  <metadata><?xpacket begin="﻿" id="W5M0MpCehiHzreSzNTczkc9d"?>
<x:xmpmeta xmlns:x="adobe:ns:meta/" x:xmptk="Adobe XMP Core 5.6-c142 79.160924, 2017/07/13-01:06:39        ">
   <rdf:RDF xmlns:rdf="http://www.w3.org/1999/02/22-rdf-syntax-ns#">
      <rdf:Description rdf:about=""/>
   </rdf:RDF>
</x:xmpmeta>
                                                                                                    
                                                                                                    
                                                                                                    
                                                                                                    
                                                                                                    
                                                                                                    
                                                                                                    
                                                                                                    
                                                                                                    
                                                                                                    
                                                                                                    
                                                                                                    
                                                                                                    
                                                                                                    
                                                                                                    
                                                                                                    
                                                                                                    
                                                                                                    
                                                                                                    
                                                                                                    
                           
<?xpacket end="w"?></metadata>
<defs>
    <style>
      .cls-1 {
        fill-rule: evenodd;
        fill: url(#linear-gradient);
      }
    </style>
    <linearGradient id="linear-gradient" x1="1920" y1="8004.031" x2="0" y2="490.969" gradientUnits="userSpaceOnUse">
      <stop offset="0.466" stop-color="#6dffc6"/>
      <stop offset="0.534" stop-color="#3fd2ce"/>
    </linearGradient>
  </defs>
  <path id="Composite_Path" data-name="Composite Path" class="cls-1" d="M1111.39,943.834a9.458,9.458,0,1,0,9.46,9.456A9.465,9.465,0,0,0,1111.39,943.834Zm18.53,1.781a1.033,1.033,0,0,1,.14-1.054l4.71-6.052-8.6-8.6-6.05,4.719a1.056,1.056,0,0,1-1.7-.705l-0.95-7.612h-12.15l-0.96,7.612a1.05,1.05,0,0,1-1.69.705l-6.06-4.709-8.59,8.589,4.71,6.052a1.056,1.056,0,0,1,.14,1.054,1.033,1.033,0,0,1-.84.642l-7.61.958v12.152l7.61,0.949a1.033,1.033,0,0,1,.84.645,1.05,1.05,0,0,1-.14,1.051l-4.71,6.065,8.59,8.586,6.06-4.708a1.052,1.052,0,0,1,1.69.7l0.96,7.611h12.15l0.95-7.611a1.058,1.058,0,0,1,1.7-.7l6.05,4.708,8.6-8.593-4.71-6.058a1.059,1.059,0,0,1,.7-1.7l7.61-.949V947.215l-7.61-.958A1.033,1.033,0,0,1,1129.92,945.615Zm-18.03-59.989a64.832,64.832,0,1,0,64.83,64.834A64.838,64.838,0,0,0,1111.89,885.626Z" transform="translate(-1047.06 -885.625)"/>
</svg>
