<svg width="60" height="60" viewBox="0 0 60 60" fill="none" xmlns="http://www.w3.org/2000/svg">
<path d="M45 19.6875C45 17.7881 43.4606 16.2506 41.5631 16.2506H23.4375C21.5381 16.2506 20.0006 17.79 20.0006 19.6875V20.0006H45V19.6875Z" fill="#E7E7E9"/>
<path d="M20.0006 21.2494V23.7488H36.5625C39.8381 23.7488 42.5006 26.4113 42.5006 29.6869V33.6244C43.95 33.2119 45 31.8881 45 30.3131V21.2513H20.0006V21.2494Z" fill="#E7E7E9"/>
<path d="M36.5625 26.25H18.4369C16.5413 26.25 15 27.7913 15 29.6869V40.3125C15 42.2081 16.5413 43.7494 18.4369 43.7494H36.5625C38.4581 43.7494 39.9994 42.2081 39.9994 40.3125V29.6869C39.9994 27.7913 38.4581 26.25 36.5625 26.25ZM18.4369 31.5619C18.4369 30.1838 19.5581 29.0625 20.9363 29.0625H22.8113C24.1894 29.0625 25.3106 30.1838 25.3106 31.5619V33.4369C25.3106 34.815 24.1894 35.9362 22.8113 35.9362H20.9363C19.5581 35.9362 18.4369 34.815 18.4369 33.4369V31.5619ZM35.3119 40.9369H19.6875C18.9975 40.9369 18.4369 40.3762 18.4369 39.6862C18.4369 38.9963 18.9975 38.4375 19.6875 38.4375H35.3119C36.0019 38.4375 36.5625 38.9981 36.5625 39.6881C36.5625 40.3781 36.0037 40.9369 35.3119 40.9369Z" fill="#FFBA49"/>
</svg>
