<svg width="28" height="30" viewBox="0 0 28 30" fill="none" xmlns="http://www.w3.org/2000/svg">
<path d="M3.47561 26.4956H21.2994L20.4481 23.7394L22.4844 25.4869L24.35 27.1594L27.7494 30V3.0937C27.665 1.4212 26.225 0 24.44 0L3.48121 0.00370026C1.69811 0.00370026 0.25061 1.4269 0.25061 3.0994V23.4C0.25061 25.1644 1.69441 26.4956 3.47561 26.4956ZM16.6606 7.1044L16.6194 7.1194L16.6344 7.1044H16.6606ZM7.12061 8.6906C9.41191 7.0238 11.5344 7.1025 11.5344 7.1025L11.705 7.2713C8.90191 7.9406 7.62871 9.1931 7.62871 9.1931C7.62871 9.1931 7.96811 9.0262 8.56251 8.7731C12.3387 7.2881 16.4619 7.3969 20.2812 9.2756C20.2812 9.2756 19.0081 8.1038 16.3756 7.3537L16.61 7.125C16.9737 7.1269 18.8994 7.1944 20.96 8.7C20.96 8.7 23.2644 12.6375 23.2644 17.475C23.1875 17.3831 21.8337 19.5581 18.35 19.6331C18.35 19.6331 17.7594 18.9656 17.3412 18.3825C19.3794 17.7975 20.1406 16.6275 20.1406 16.6275C19.4712 17.0494 18.8619 17.2987 18.3669 17.5481C17.6056 17.8837 16.8425 18.0487 16.0812 18.2175C12.4756 18.8025 10.4525 17.8237 8.54001 17.0475L7.88561 16.7156C7.88561 16.7156 8.64691 17.8856 10.6025 18.4706C10.0887 19.0575 9.58061 19.7231 9.58061 19.7231C6.09871 19.6406 4.82751 17.4656 4.82751 17.4656C4.82941 12.6206 7.12061 8.6906 7.12061 8.6906Z" fill="#FFBA49"/>
<path d="M16.8856 15.9637C17.7744 15.9637 18.4981 15.2137 18.4981 14.2893C18.4981 13.3706 17.7781 12.6206 16.8856 12.6206V12.6244C16.0006 12.6244 15.275 13.3725 15.2731 14.2968C15.2731 15.2137 15.9969 15.9637 16.8856 15.9637Z" fill="#FFBA49"/>
<path d="M11.1125 15.9637C12.0013 15.9637 12.725 15.2137 12.725 14.2893C12.725 13.3706 12.0069 12.6206 11.1182 12.6206L11.1125 12.6244C10.2238 12.6244 9.5 13.3725 9.5 14.2968C9.5 15.2137 10.2238 15.9637 11.1125 15.9637Z" fill="#FFBA49"/>
</svg>
