<svg width="60" height="60" viewBox="0 0 60 60" fill="none" xmlns="http://www.w3.org/2000/svg">
<path d="M30 15C21.7256 15 15 21.7256 15 30C15 38.2744 21.7256 45 30 45C30.8006 45 31.5881 44.9381 32.3625 44.8125C32.3119 44.7244 32.2744 44.6494 32.25 44.5631L31.5244 42.4013C31.0238 42.4631 30.5119 42.5006 30 42.5006C23.1131 42.5006 17.4994 36.8888 17.4994 30C17.4994 23.1112 23.1131 17.4994 30 17.4994C36.8869 17.4994 42.5006 23.1112 42.5006 30C42.5006 30.525 42.4631 31.0369 42.4013 31.5375L44.5519 32.25C44.64 32.2744 44.7262 32.3119 44.8144 32.3625C44.9381 31.5881 45 30.8006 45 30C45 21.7256 38.2744 15 30 15Z" fill="#FFBA49"/>
<path d="M30 21.1124C25.1006 21.1124 21.1125 25.1006 21.1125 29.9999C21.1125 34.8993 25.1006 38.8874 30 38.8874C30.1125 38.8874 30.2381 38.8874 30.3506 38.8631L29.5125 36.3637C26.2125 36.1143 23.6119 33.3637 23.6119 30.0018C23.6119 26.4768 26.475 23.6137 30 23.6137C33.3619 23.6137 36.1256 26.2256 36.3619 29.5256L38.8612 30.3637C38.8875 30.2381 38.8875 30.1256 38.8875 29.9999C38.8875 25.1006 34.8994 21.1124 30 21.1124Z" fill="#FFBA49"/>
<path d="M30 26.0006C27.8006 26.0006 26.0006 27.8006 26.0006 30C26.0006 31.725 27.1125 33.2006 28.65 33.7631L28.275 32.625C27.8625 31.3744 28.1756 30.0244 29.1 29.1C29.7506 28.4494 30.6131 28.1006 31.5375 28.1006C31.8994 28.1006 32.2631 28.1512 32.6119 28.275L33.7612 28.6631C33.2119 27.1125 31.725 26.0006 30 26.0006Z" fill="#FFBA49"/>
<path d="M35.5106 44.4037C35.5031 44.4037 35.4956 44.4037 35.49 44.4037C35.0944 44.3943 34.7475 44.1374 34.62 43.7624L30.6413 31.8299C30.5288 31.4924 30.6169 31.1212 30.8681 30.8699C31.1194 30.6187 31.4888 30.5324 31.8281 30.6431L43.7625 34.6199C44.1375 34.7456 44.3944 35.0924 44.4038 35.4881C44.4131 35.8837 44.1713 36.2418 43.8038 36.3843L38.4469 38.4449L36.3881 43.7999C36.2475 44.1655 35.8988 44.4037 35.5106 44.4037Z" fill="#E7E7E9"/>
</svg>
