<svg width="60" height="60" viewBox="0 0 60 60" fill="none" xmlns="http://www.w3.org/2000/svg">
<path d="M60 30C60 39.9048 52 48 42 48C32.0952 48 24 39.9048 24 30C24 20.0952 32 12 41.9048 12C52 12 60 20.0952 60 30Z" fill="#FFBA49"/>
<path d="M42 12C51.9048 12 60 20.0952 60 30C60 39.9048 52 48 42 48C32.0952 48 24 39.9048 24 30" fill="#FFBA49"/>
<path d="M42 12C51.9048 12 60 20.0952 60 30C60 39.9048 52 48 42 48" fill="#FFBA49"/>
<path d="M17.8095 12C8 12.0952 0 20.0952 0 30C0 39.9048 8 48 18 48C22.6667 48 26.8571 46.1905 30.0952 43.3333C30.7619 42.7619 31.3333 42.0952 31.9048 41.4286H28.1905C27.7143 40.8571 27.2381 40.1905 26.8571 39.619H33.2381C33.619 39.0476 34 38.3809 34.2857 37.7143H25.8095C25.5238 37.1429 25.2381 36.4762 25.0476 35.8095H34.9524C35.5238 34 35.9048 32.0952 35.9048 30.0952C35.9048 28.7619 35.7143 27.5238 35.5238 26.2857H24.4762C24.5714 25.619 24.7619 25.0476 24.9524 24.381H34.8571C34.6667 23.7143 34.381 23.0476 34.0952 22.4762H25.7143C26 21.8095 26.381 21.2381 26.7619 20.5714H33.1429C32.7619 19.9048 32.2857 19.2381 31.7143 18.6667H28.1905C28.7619 18 29.3333 17.4286 30 16.8571C26.8571 13.9048 22.5714 12.1905 17.9048 12.1905C17.9048 12 17.9048 12 17.8095 12Z" fill="#E7E7E9"/>
<path d="M0 30.0001C0 39.9048 8 48.0001 18 48.0001C22.6667 48.0001 26.8571 46.1906 30.0952 43.3334C30.7619 42.762 31.3333 42.0953 31.9048 41.4286H28.1905C27.7143 40.8572 27.2381 40.1905 26.8571 39.6191H33.2381C33.619 39.0477 34 38.381 34.2857 37.7144H25.8095C25.5238 37.1429 25.2381 36.4763 25.0476 35.8096H34.9524C35.5238 34.0001 35.9048 32.0953 35.9048 30.0953C35.9048 28.762 35.7143 27.5239 35.5238 26.2858H24.4762C24.5714 25.6191 24.7619 25.0477 24.9524 24.381H34.8571C34.6667 23.7144 34.381 23.0477 34.0952 22.4763H25.7143C26 21.8096 26.381 21.2382 26.7619 20.5715H33.1429C32.7619 19.9048 32.2857 19.2382 31.7143 18.6667H28.1905C28.7619 18.0001 29.3333 17.4286 30 16.8572C26.8571 13.9048 22.5714 12.1906 17.9048 12.1906H17.8095" fill="#E7E7E9"/>
<path d="M18 48.0001C22.6667 48.0001 26.8571 46.1906 30.0952 43.3334C30.7619 42.762 31.3333 42.0953 31.9047 41.4286H28.1905C27.7143 40.8572 27.2381 40.1905 26.8571 39.6191H33.2381C33.619 39.0477 34 38.381 34.2857 37.7144H25.8095C25.5238 37.1429 25.2381 36.4763 25.0476 35.8096H34.9524C35.5238 34.0001 35.9047 32.0953 35.9047 30.0953C35.9047 28.762 35.7143 27.5239 35.5238 26.2858H24.4762C24.5714 25.6191 24.7619 25.0477 24.9524 24.381H34.8571C34.6667 23.7144 34.3809 23.0477 34.0952 22.4763H25.7143C26 21.8096 26.3809 21.2382 26.7619 20.5715H33.1428C32.7619 19.9048 32.2857 19.2382 31.7143 18.6667H28.1905C28.7619 18.0001 29.3333 17.4286 30 16.8572C26.8571 13.9048 22.5714 12.1906 17.9047 12.1906H17.8095" fill="#E7E7E9"/>
<path d="M24.381 34.5714L24.6667 32.9523C24.5714 32.9523 24.381 33.0476 24.1905 33.0476C23.5238 33.0476 23.4286 32.6666 23.5238 32.4761L24.0952 29.1428H25.1429L25.4286 27.3333H24.4762L24.6667 26.1904H22.7619C22.7619 26.1904 21.619 32.4761 21.619 33.238C21.619 34.3809 22.2857 34.8571 23.1429 34.8571C23.7143 34.8571 24.1905 34.6666 24.381 34.5714Z" fill="#0D1321"/>
<path d="M25.0476 31.5238C25.0476 34.1905 26.8572 34.8572 28.381 34.8572C29.8095 34.8572 30.381 34.5715 30.381 34.5715L30.7619 32.7619C30.7619 32.7619 29.7143 33.2381 28.7619 33.2381C26.6667 33.2381 27.0476 31.7143 27.0476 31.7143H30.9524C30.9524 31.7143 31.2381 30.4762 31.2381 30C31.2381 28.7619 30.5715 27.2381 28.4762 27.2381C26.4762 27.0477 25.0476 29.1429 25.0476 31.5238ZM28.381 28.7619C29.4286 28.7619 29.2381 30 29.2381 30.0953H27.1429C27.1429 30 27.3334 28.7619 28.381 28.7619Z" fill="#0D1321"/>
<path d="M40.4762 34.5713L40.8572 32.4761C40.8572 32.4761 39.9048 32.9523 39.2381 32.9523C37.9048 32.9523 37.3333 31.9047 37.3333 30.7618C37.3333 28.4761 38.4762 27.238 39.8095 27.238C40.7619 27.238 41.5238 27.8094 41.5238 27.8094L41.8095 25.8094C41.8095 25.8094 40.6667 25.3333 39.6191 25.3333C37.4286 25.3333 35.2381 27.238 35.2381 30.8571C35.2381 33.238 36.381 34.8571 38.6667 34.8571C39.4286 34.8571 40.4762 34.5713 40.4762 34.5713Z" fill="#0D1321"/>
<path d="M13.9048 27.0475C12.5714 27.0475 11.6191 27.4284 11.6191 27.4284L11.3334 29.0475C11.3334 29.0475 12.1905 28.6665 13.4286 28.6665C14.0953 28.6665 14.6667 28.7618 14.6667 29.3332C14.6667 29.7141 14.5714 29.8094 14.5714 29.8094C14.5714 29.8094 14 29.8094 13.7143 29.8094C12.0953 29.8094 10.2857 30.4761 10.2857 32.6665C10.2857 34.3808 11.4286 34.7618 12.0953 34.7618C13.4286 34.7618 14 33.9046 14.0953 33.9046L14 34.6665H15.7143L16.4762 29.4284C16.4762 27.1427 14.5714 27.0475 13.9048 27.0475ZM14.2857 31.3332C14.2857 31.6189 14.0953 33.1427 12.9524 33.1427C12.381 33.1427 12.1905 32.6665 12.1905 32.3808C12.1905 31.9046 12.4762 31.238 13.9048 31.238C14.1905 31.3332 14.2857 31.3332 14.2857 31.3332Z" fill="#0D1321"/>
<path d="M18.2857 34.7618C18.7619 34.7618 21.1429 34.857 21.1429 32.2856C21.1429 29.9047 18.8572 30.3808 18.8572 29.4285C18.8572 28.9523 19.2381 28.7618 19.9048 28.7618C20.1905 28.7618 21.2381 28.857 21.2381 28.857L21.5238 27.1427C21.5238 27.1427 20.8572 26.9523 19.7143 26.9523C18.2857 26.9523 16.8572 27.5237 16.8572 29.4285C16.8572 31.6189 19.2381 31.4285 19.2381 32.2856C19.2381 32.857 18.5714 32.9523 18.0952 32.9523C17.2381 32.9523 16.381 32.6666 16.381 32.6666L16.0952 34.3808C16.1905 34.5713 16.6667 34.7618 18.2857 34.7618Z" fill="#0D1321"/>
<path d="M56.2857 25.5238L55.9048 28.0952C55.9048 28.0952 55.1429 27.1429 54.0953 27.1429C52.381 27.1429 50.8572 29.2381 50.8572 31.7143C50.8572 33.2381 51.6191 34.8571 53.2381 34.8571C54.381 34.8571 55.0477 34.0952 55.0477 34.0952L54.9524 34.7619H56.8572L58.2858 25.619L56.2857 25.5238ZM55.4286 30.5714C55.4286 31.619 54.9524 32.9524 53.9048 32.9524C53.2381 32.9524 52.8572 32.3809 52.8572 31.4286C52.8572 29.9048 53.5238 28.9524 54.381 28.9524C55.0477 28.9524 55.4286 29.4286 55.4286 30.5714Z" fill="#0D1321"/>
<path d="M3.52382 34.6667L4.66668 27.8095L4.85715 34.6667H6.19049L8.66668 27.8095L7.61906 34.6667H9.61906L11.1429 25.5238H8.00001L6.09525 31.1429L6.00001 25.5238H3.2381L1.71429 34.6667H3.52382Z" fill="#0D1321"/>
<path d="M33.0476 34.6666C33.6191 31.5237 33.7143 28.9523 35.0476 29.4285C35.2381 28.1904 35.5238 27.7142 35.7143 27.238C35.7143 27.238 35.6191 27.238 35.3333 27.238C34.4762 27.238 33.8095 28.3809 33.8095 28.3809L34 27.3333H32.1905L30.9524 34.7618H33.0476V34.6666Z" fill="#0D1321"/>
<path d="M44.8571 27.0475C43.5238 27.0475 42.5714 27.4284 42.5714 27.4284L42.2857 29.0475C42.2857 29.0475 43.1429 28.6665 44.381 28.6665C45.0476 28.6665 45.6191 28.7618 45.6191 29.3332C45.6191 29.7141 45.5238 29.8094 45.5238 29.8094C45.5238 29.8094 44.9524 29.8094 44.6667 29.8094C43.0476 29.8094 41.2381 30.4761 41.2381 32.6665C41.2381 34.3808 42.381 34.7618 43.0476 34.7618C44.381 34.7618 44.9524 33.9046 45.0476 33.9046L44.9524 34.6665H46.6667L47.4286 29.4284C47.5238 27.1427 45.5238 27.0475 44.8571 27.0475ZM45.3333 31.3332C45.3333 31.6189 45.1429 33.1427 44 33.1427C43.4286 33.1427 43.2381 32.6665 43.2381 32.3808C43.2381 31.9046 43.5238 31.238 44.9524 31.238C45.2381 31.3332 45.2381 31.3332 45.3333 31.3332Z" fill="#0D1321"/>
<path d="M49.0476 34.6666C49.6191 31.5237 49.7143 28.9523 51.0476 29.4285C51.2381 28.1904 51.5238 27.7142 51.7143 27.238C51.7143 27.238 51.6191 27.238 51.3333 27.238C50.4762 27.238 49.8095 28.3809 49.8095 28.3809L50 27.3333H48.1905L46.9524 34.7618H49.0476V34.6666Z" fill="#0D1321"/>
<path d="M21.4286 33.238C21.4286 34.3809 22.0953 34.8571 22.9524 34.8571C23.6191 34.8571 24.1905 34.6666 24.381 34.5714L24.6667 32.9523C24.5714 32.9523 24.381 33.0476 24.1905 33.0476C23.5238 33.0476 23.4286 32.6666 23.5238 32.4761L24.0953 29.1428H25.1429L25.4286 27.3333H24.4762L24.6667 26.1904" fill="#0D1321"/>
<path d="M26 31.5238C26 34.1905 26.8571 34.8572 28.381 34.8572C29.8095 34.8572 30.381 34.5715 30.381 34.5715L30.7619 32.7619C30.7619 32.7619 29.7143 33.2381 28.7619 33.2381C26.6667 33.2381 27.0476 31.7143 27.0476 31.7143H30.9524C30.9524 31.7143 31.2381 30.4762 31.2381 30C31.2381 28.7619 30.5714 27.2381 28.4762 27.2381C26.4762 27.0477 26 29.1429 26 31.5238ZM28.381 28.7619C29.4286 28.7619 29.6191 30 29.6191 30.0953H27.1429C27.1429 30 27.3333 28.7619 28.381 28.7619Z" fill="#0D1321"/>
<path d="M40.4762 34.5713L40.8572 32.4761C40.8572 32.4761 39.9048 32.9523 39.2381 32.9523C37.9048 32.9523 37.3333 31.9047 37.3333 30.7618C37.3333 28.4761 38.4762 27.238 39.8095 27.238C40.7619 27.238 41.5238 27.8094 41.5238 27.8094L41.8095 25.8094C41.8095 25.8094 40.6667 25.3333 39.6191 25.3333C37.4286 25.3333 36.1905 27.238 36.1905 30.8571C36.1905 33.238 36.381 34.8571 38.6667 34.8571C39.4286 34.8571 40.4762 34.5713 40.4762 34.5713Z" fill="#0D1321"/>
<path d="M11.3334 29.1428C11.3334 29.1428 12.1905 28.7618 13.4286 28.7618C14.0953 28.7618 14.6667 28.8571 14.6667 29.4285C14.6667 29.8095 14.5714 29.9047 14.5714 29.9047C14.5714 29.9047 14 29.9047 13.7143 29.9047C12.0953 29.9047 10.2857 30.5714 10.2857 32.7618C10.2857 34.4761 11.4286 34.8571 12.0953 34.8571C13.4286 34.8571 14 33.9999 14.0953 33.9999L14 34.7618H15.7143L16.4762 29.5237C16.4762 27.3333 14.5714 27.238 13.8095 27.238L11.3334 29.1428ZM15.2381 31.3333C15.2381 31.619 14.0953 33.1428 12.9524 33.1428C12.381 33.1428 12.1905 32.6666 12.1905 32.3809C12.1905 31.9047 12.4762 31.238 13.9048 31.238C14.1905 31.3333 15.2381 31.3333 15.2381 31.3333Z" fill="#0D1321"/>
<path d="M16.1905 34.5713C16.1905 34.5713 16.7619 34.7618 18.381 34.7618C18.8572 34.7618 21.2381 34.857 21.2381 32.2856C21.2381 29.9047 18.9524 30.3808 18.9524 29.4285C18.9524 28.9523 19.3333 28.7618 20 28.7618C20.2857 28.7618 21.3333 28.857 21.3333 28.857L21.6191 27.1427C21.6191 27.1427 20.9524 26.9523 19.8095 26.9523C18.381 26.9523 17.9048 27.5237 17.9048 29.4285C17.9048 31.6189 19.3333 31.4285 19.3333 32.2856C19.3333 32.857 18.6667 32.9523 18.1905 32.9523" fill="#0D1321"/>
<path d="M55.9048 28.0952C55.9048 28.0952 55.1429 27.1428 54.0952 27.1428C52.3809 27.1428 51.8095 29.2381 51.8095 31.7143C51.8095 33.2381 51.619 34.8571 53.2381 34.8571C54.381 34.8571 55.0476 34.0952 55.0476 34.0952L54.9524 34.7619H56.8571L58.2857 25.619L55.9048 28.0952ZM55.8095 30.5714C55.8095 31.619 54.9524 32.9523 53.9048 32.9523C53.2381 32.9523 52.8571 32.3809 52.8571 31.4285C52.8571 29.9047 53.5238 28.9523 54.3809 28.9523C55.0476 28.9523 55.8095 29.4285 55.8095 30.5714Z" fill="#0D1321"/>
<path d="M3.52382 34.6667L4.66668 27.8095L4.85715 34.6667H6.19049L8.66668 27.8095L7.61906 34.6667H9.61906L11.1429 25.5238H8.76191L6.09525 31.1429L6.00001 25.5238H4.95239L1.71429 34.6667H3.52382Z" fill="#0D1321"/>
<path d="M31.0476 34.6666H33.0476C33.6191 31.5238 33.7143 28.9523 35.0476 29.4285C35.2381 28.1904 35.5238 27.7142 35.7143 27.238C35.7143 27.238 35.6191 27.238 35.3334 27.238C34.4762 27.238 33.8095 28.3809 33.8095 28.3809L34 27.3333" fill="#0D1321"/>
<path d="M42.2857 29.1428C42.2857 29.1428 43.1429 28.7618 44.381 28.7618C45.0476 28.7618 45.6191 28.8571 45.6191 29.4285C45.6191 29.8095 45.5238 29.9047 45.5238 29.9047C45.5238 29.9047 44.9524 29.9047 44.6667 29.9047C43.0476 29.9047 41.2381 30.5714 41.2381 32.7618C41.2381 34.4761 42.381 34.8571 43.0476 34.8571C44.381 34.8571 44.9524 33.9999 45.0476 33.9999L44.9524 34.7618H46.6667L47.4286 29.5237C47.4286 27.3333 45.5238 27.238 44.7619 27.238L42.2857 29.1428ZM46.1905 31.3333C46.1905 31.619 45.0476 33.1428 43.9048 33.1428C43.3333 33.1428 43.1429 32.6666 43.1429 32.3809C43.1429 31.9047 43.4286 31.238 44.8571 31.238C45.2381 31.3333 46.1905 31.3333 46.1905 31.3333Z" fill="#0D1321"/>
<path d="M47.0476 34.6666H49.0476C49.619 31.5238 49.7143 28.9523 51.0476 29.4285C51.2381 28.1904 51.5238 27.7142 51.7143 27.238C51.7143 27.238 51.619 27.238 51.3333 27.238C50.4762 27.238 49.8095 28.3809 49.8095 28.3809L50 27.3333" fill="#0D1321"/>
</svg>
