<svg width="60" height="60" viewBox="0 0 60 60" fill="none" xmlns="http://www.w3.org/2000/svg">
<g clip-path="url(#clip0)">
<path d="M46.3809 26.3334H43.1428C42.9524 26.3334 42.7619 26.5238 42.6666 26.7143L41.3333 35.0953C41.3333 35.2858 41.4286 35.381 41.619 35.381H43.3333C43.5238 35.381 43.619 35.2858 43.619 35.0953L44 32.7143C44 32.5239 44.1905 32.3334 44.4762 32.3334H45.5238C47.7143 32.3334 48.9524 31.2858 49.2381 29.1905C49.4285 28.3334 49.2381 27.5715 48.8571 27.0953C48.2857 26.6191 47.4285 26.3334 46.3809 26.3334ZM46.7619 29.4762C46.5714 30.6191 45.7143 30.6191 44.8571 30.6191H44.2857L44.6666 28.4286C44.6666 28.3334 44.7619 28.2381 44.9524 28.2381H45.1428C45.7143 28.2381 46.2857 28.2381 46.5714 28.6191C46.7619 28.7143 46.7619 29 46.7619 29.4762Z" fill="#E7E7E9"/>
<path d="M23.0476 26.3334H19.8095C19.619 26.3334 19.4286 26.5238 19.3333 26.7143L18 35.0953C18 35.2858 18.0952 35.381 18.2857 35.381H19.8095C20 35.381 20.1905 35.1905 20.2857 35L20.6667 32.7143C20.6667 32.5239 20.8571 32.3334 21.1429 32.3334H22.1905C24.381 32.3334 25.619 31.2858 25.9048 29.1905C26.0952 28.3334 25.9048 27.5715 25.5238 27.0953C24.9524 26.6191 24.1905 26.3334 23.0476 26.3334ZM23.4286 29.4762C23.2381 30.6191 22.381 30.6191 21.5238 30.6191H21.0476L21.4286 28.4286C21.4286 28.3334 21.5238 28.2381 21.7143 28.2381H21.9048C22.4762 28.2381 23.0476 28.2381 23.3333 28.6191C23.4286 28.7143 23.5238 29 23.4286 29.4762Z" fill="#FFBA49"/>
<path d="M32.8571 29.3809H31.3333C31.2381 29.3809 31.0476 29.4761 31.0476 29.5714L30.9524 30.0476L30.8571 29.8571C30.4762 29.3809 29.8095 29.1904 29.0476 29.1904C27.3333 29.1904 25.8095 30.5238 25.5238 32.3333C25.3333 33.2857 25.619 34.1428 26.0952 34.7142C26.5714 35.2857 27.2381 35.4762 28.0952 35.4762C29.5238 35.4762 30.2857 34.619 30.2857 34.619L30.1905 35.0952C30.1905 35.2857 30.2857 35.3809 30.4762 35.3809H31.9047C32.0952 35.3809 32.2857 35.1904 32.3809 35L33.2381 29.6666C33.1428 29.5714 32.9524 29.3809 32.8571 29.3809ZM30.6667 32.4285C30.4762 33.2857 29.8095 33.9523 28.8571 33.9523C28.3809 33.9523 28 33.7619 27.8095 33.5714C27.619 33.2857 27.5238 32.9047 27.5238 32.4285C27.619 31.5714 28.3809 30.9047 29.2381 30.9047C29.7143 30.9047 30 31.0952 30.2857 31.2857C30.5714 31.5714 30.6667 32.0476 30.6667 32.4285Z" fill="#FFBA49"/>
<path d="M56.0952 29.3809H54.5714C54.4762 29.3809 54.2857 29.4761 54.2857 29.5714L54.1905 30.0476L54.0952 29.8571C53.7143 29.3809 53.0476 29.1904 52.2857 29.1904C50.5714 29.1904 49.0476 30.5238 48.7619 32.3333C48.5714 33.2857 48.8571 34.1428 49.3333 34.7142C49.8095 35.2857 50.4762 35.4762 51.3333 35.4762C52.7619 35.4762 53.5238 34.619 53.5238 34.619L53.4286 35.0952C53.4286 35.2857 53.5238 35.3809 53.7143 35.3809H55.1429C55.3333 35.3809 55.5238 35.1904 55.619 35L56.4762 29.6666C56.3809 29.5714 56.2857 29.3809 56.0952 29.3809ZM53.9048 32.4285C53.7143 33.2857 53.0476 33.9523 52.0952 33.9523C51.619 33.9523 51.2381 33.7619 51.0476 33.5714C50.8571 33.2857 50.7619 32.9047 50.7619 32.4285C50.8571 31.5714 51.619 30.9047 52.4762 30.9047C52.9524 30.9047 53.2381 31.0952 53.5238 31.2857C53.9048 31.5714 54 32.0476 53.9048 32.4285Z" fill="#E7E7E9"/>
<path d="M41.1429 29.3809H39.5238C39.3334 29.3809 39.2381 29.4761 39.1429 29.5713L37.0476 32.8094L36.0953 29.7618C36 29.5713 35.9048 29.4761 35.6191 29.4761H34.0953C33.9048 29.4761 33.8095 29.6666 33.8095 29.857L35.5238 34.9047L33.9048 37.1904C33.8095 37.3809 33.9048 37.6666 34.0953 37.6666H35.6191C35.8095 37.6666 35.9048 37.5713 36 37.4761L41.2381 29.9523C41.5238 29.6666 41.3334 29.3809 41.1429 29.3809Z" fill="#FFBA49"/>
<path d="M57.9048 26.6191L56.5714 35.1905C56.5714 35.381 56.6667 35.4762 56.8572 35.4762H58.1905C58.381 35.4762 58.5714 35.2857 58.6667 35.0953L60 26.7143C60 26.5238 59.9048 26.4286 59.7143 26.4286H58.1905C58.0952 26.3334 58 26.4286 57.9048 26.6191Z" fill="#E7E7E9"/>
<path d="M10.9524 23.4762C10.2857 22.7143 9.04762 22.3334 7.33333 22.3334H2.57143C2.28571 22.3334 2 22.6191 1.90476 22.9048L0 35.381C0 35.6667 0.190476 35.8572 0.380952 35.8572H3.33333L4.09524 31.1905V31.381C4.19048 31.0953 4.47619 30.8096 4.76191 30.8096H6.19048C8.95238 30.8096 11.0476 29.6667 11.7143 26.5238C11.7143 26.4286 11.7143 26.3334 11.7143 26.2381C11.619 26.2381 11.619 26.2381 11.7143 26.2381C11.8095 25 11.619 24.2381 10.9524 23.4762Z" fill="#FFBA49"/>
<path d="M11.619 26.2382C11.619 26.3334 11.619 26.4286 11.619 26.5239C10.9524 29.762 8.85713 30.8096 6.09523 30.8096H4.66666C4.38094 30.8096 4.09523 31.0953 3.99999 31.381L3.04761 37.1905C3.04761 37.381 3.14285 37.5715 3.42856 37.5715H5.90475C6.19046 37.5715 6.47618 37.381 6.47618 37.0953V37.0001L6.95237 34.0477V33.8572C6.95237 33.5715 7.23808 33.381 7.5238 33.381H7.90475C10.2857 33.381 12.1905 32.4286 12.6667 29.5715C12.8571 28.4286 12.7619 27.381 12.1905 26.7143C12.0952 26.5239 11.9047 26.3334 11.619 26.2382Z" fill="#E7E7E9"/>
<path d="M10.9524 25.9525C10.8571 25.9525 10.7619 25.8572 10.6667 25.8572C10.5714 25.8572 10.4762 25.8572 10.381 25.762C10 25.6667 9.61905 25.6667 9.14286 25.6667H5.42858C5.33334 25.6667 5.2381 25.6667 5.14286 25.762C4.95239 25.8572 4.85715 26.0477 4.85715 26.2382L4.09525 31.1906V31.381C4.19048 31.0953 4.4762 30.8096 4.76191 30.8096H6.19048C8.95239 30.8096 11.0476 29.6667 11.7143 26.5239C11.7143 26.4287 11.7143 26.3334 11.8095 26.2382C11.6191 26.1429 11.5238 26.0477 11.3333 26.0477C11.0476 25.9525 11.0476 25.9525 10.9524 25.9525Z" fill="#FFBA49"/>
</g>
<defs>
<clipPath id="clip0">
<rect width="60" height="60" fill="white"/>
</clipPath>
</defs>
</svg>
