<svg width="31" height="31" viewBox="0 0 31 31" fill="none" xmlns="http://www.w3.org/2000/svg">
<path d="M29.1431 18.1912C31.3162 8.42811 22.7625 -0.440643 12.7181 1.26186C7.2675 -2.12252 0.00562668 1.70248 0.00562668 8.18998C0.00562668 9.69936 0.421876 11.1112 1.14563 12.3281C-0.871874 22.1137 7.74938 30.855 17.7844 29.0362C24.8813 32.7881 32.7187 25.305 29.1431 18.1912ZM19.5975 24.0787C16.9631 25.1625 12.6263 25.1681 10.0031 23.7956C6.2625 21.8006 5.59688 17.31 8.82375 17.31C11.2575 17.31 10.485 20.1469 12.9431 21.3019C14.0719 21.8231 16.4944 21.8756 17.9025 20.9269C19.2938 19.995 19.1663 18.5306 18.4106 17.8312C16.4062 15.9806 10.6725 16.7156 8.05313 13.4775C6.91313 12.0712 6.69938 9.59436 8.09813 7.79623C10.5375 4.65561 17.6981 4.46623 20.7769 6.83623C23.6194 9.03561 22.8525 11.9569 20.5575 11.9569C17.7975 11.9569 19.2487 8.34748 14.7956 8.34748C11.5669 8.34748 10.2975 10.6444 12.57 11.7619C15.6525 13.2919 23.5069 12.7819 23.5069 18.765C23.4994 21.2531 21.9731 23.1094 19.5975 24.0787Z" fill="#FFBA49"/>
</svg>
