<svg width="60" height="60" viewBox="0 0 60 60" fill="none" xmlns="http://www.w3.org/2000/svg">
<path d="M41.5631 17.4994C42.0806 17.4994 42.5006 17.9194 42.5006 18.4369V35.3119C42.5006 35.8294 42.0806 36.2494 41.5631 36.2494H27.5756C26.9119 36.2494 26.2762 36.5119 25.8075 36.9825L22.5 40.29V38.7506C22.5 37.3706 21.3806 36.2512 20.0006 36.2512H18.4369C17.9194 36.2512 17.4994 35.8312 17.4994 35.3137V18.4387C17.4994 17.9212 17.9194 17.5012 18.4369 17.5012H41.5631V17.4994ZM41.5631 15H18.4369C16.5413 15 15 16.5413 15 18.4369V35.3119C15 37.2075 16.5413 38.7488 18.4369 38.7488H19.9988V44.0625C19.9988 44.4412 20.2275 44.7825 20.5781 44.9287C20.6944 44.9775 20.8162 45 20.9381 45C21.1819 45 21.4219 44.9044 21.6019 44.7262L27.5775 38.7506H41.565C43.4606 38.7506 45.0019 37.2094 45.0019 35.3137V18.4387C45 16.5412 43.4587 15 41.5631 15Z" fill="#FFBA49"/>
<path d="M26.25 32.1881C26.25 32.8781 25.6912 33.4388 24.9994 33.4388H23.7487C23.0587 33.4388 22.4981 32.8781 22.4981 32.1881V24.6881C22.4981 23.9981 23.0569 23.4375 23.7487 23.4375H24.9994C25.6894 23.4375 26.25 23.9962 26.25 24.6881V32.1881Z" fill="#E7E7E9"/>
<path d="M36.7875 30.9132C36.5625 32.3513 35.25 33.4388 33.75 33.4388H32.7994C30.3 33.4388 28.5619 32.9757 27.4744 32.5257C27.4875 32.4132 27.4987 32.3007 27.4987 32.1882V24.6882C27.4987 24.2513 27.3862 23.8388 27.1856 23.475C27.8475 22.95 28.6725 22.1007 28.6725 21.15C28.6725 20.3757 28.6725 18.7744 30.1725 18.7744C31.1719 18.7744 32.2594 19.6988 32.2594 21.7238C32.2594 22.4119 32.1337 22.9988 31.9969 23.4357H34.485C36.15 23.4375 37.5 24.7875 37.5 26.4507C37.5 26.4882 37.35 29.6251 36.7369 30.9001L36.7875 30.9132Z" fill="#E7E7E9"/>
</svg>
