<svg width="60" height="60" viewBox="0 0 60 60" fill="none" xmlns="http://www.w3.org/2000/svg">
<g clip-path="url(#clip0)">
<path d="M22 38.6191L25.0476 21.4762H29.8095L26.8571 38.6191H22Z" fill="#E7E7E9"/>
<path d="M22 38.6191L25.9048 21.4762H29.8095L26.8571 38.6191H22Z" fill="#E7E7E9"/>
<path d="M44.0952 21.6667C43.1429 21.2857 41.619 20.9048 39.7143 20.9048C34.9524 20.9048 31.5238 23.2857 31.5238 26.7143C31.5238 29.2857 33.9048 30.6191 35.8095 31.4762C37.7143 32.3334 38.2857 32.9048 38.2857 33.6667C38.2857 34.8095 36.7619 35.381 35.4286 35.381C33.5238 35.381 32.4762 35.0953 30.8571 34.4286L30.1905 34.1429L29.5238 38.0476C30.6667 38.5238 32.7619 39 34.9524 39C40 39 43.3333 36.6191 43.3333 33C43.3333 31 42.0952 29.4762 39.2381 28.2381C37.5238 27.381 36.4762 26.9048 36.4762 26.0476C36.4762 25.2857 37.3333 24.5238 39.2381 24.5238C40.8571 24.5238 42 24.8095 42.8571 25.1905L43.3333 25.381L44.0952 21.6667Z" fill="#E7E7E9"/>
<path d="M44.0952 21.6667C43.1429 21.2857 41.619 20.9048 39.7143 20.9048C34.9524 20.9048 32.3809 23.2857 32.3809 26.7143C32.3809 29.2857 33.9048 30.6191 35.8095 31.4762C37.7143 32.3334 38.2857 32.9048 38.2857 33.6667C38.2857 34.8095 36.7619 35.381 35.4286 35.381C33.5238 35.381 32.4762 35.0953 30.8571 34.4286L30.1905 34.1429L29.5238 38.0476C30.6667 38.5238 32.7619 39 34.9524 39C40 39 43.3333 36.6191 43.3333 33C43.3333 31 42.0952 29.4762 39.2381 28.2381C37.5238 27.381 36.4762 26.9048 36.4762 26.0476C36.4762 25.2857 37.3333 24.5238 39.2381 24.5238C40.8571 24.5238 42 24.8095 42.8571 25.1905L43.3333 25.381L44.0952 21.6667Z" fill="#E7E7E9"/>
<path d="M52.2857 21.4762C51.1429 21.4762 50.2857 21.5714 49.8095 22.7143L42.6667 38.6191H47.8095L48.7619 35.7619H54.8572L55.4286 38.6191H60L56 21.4762H52.2857ZM50.0953 32.9048C50.381 32.0476 52 27.8571 52 27.8571C52 27.8571 52.381 26.8095 52.6667 26.1429L52.9524 27.7619C52.9524 27.7619 53.9048 32.0476 54.0953 33H50.0953V32.9048Z" fill="#E7E7E9"/>
<path d="M53.4286 21.4762C52.2857 21.4762 51.4286 21.5714 50.9524 22.7143L42.6667 38.6191H47.8095L48.7619 35.7619H54.8572L55.4286 38.6191H60L56 21.4762H53.4286ZM50.0953 32.9048C50.4762 31.9524 52 27.8571 52 27.8571C52 27.8571 52.381 26.8095 52.6667 26.1429L52.9524 27.7619C52.9524 27.7619 53.9048 32.0476 54.0953 33H50.0953V32.9048Z" fill="#E7E7E9"/>
<path d="M13.2381 33.4762L12.7619 31C11.9047 28.1428 9.14283 25 6.09521 23.4762L10.3809 38.7143H15.5238L23.2381 21.5714H18.0952L13.2381 33.4762Z" fill="#E7E7E9"/>
<path d="M13.2381 33.4762L12.7619 31C11.9047 28.1428 9.14283 25 6.09521 23.4762L10.3809 38.7143H15.5238L23.2381 21.5714H19.0476L13.2381 33.4762Z" fill="#E7E7E9"/>
<path d="M0 21.4762L0.857143 21.6667C6.95238 23.0952 11.1429 26.7143 12.7619 31L11.0476 22.9048C10.7619 21.7619 9.90476 21.4762 8.85714 21.4762H0Z" fill="#FFBA49"/>
<path d="M0 21.4762C6.09524 22.9048 11.1429 26.6191 12.7619 30.9048L11.1429 24.1429C10.8571 23 9.90476 22.3333 8.85714 22.3333L0 21.4762Z" fill="#FFBA49"/>
<path d="M0 21.4762C6.09524 22.9048 11.1429 26.6191 12.7619 30.9048L11.619 27.1905C11.3333 26.0476 10.9524 24.9048 9.61905 24.4286L0 21.4762Z" fill="#FFBA49"/>
<path d="M18 32.9048L14.7619 29.6667L13.2381 33.2857L12.8572 30.9048C12 28.0476 9.23811 24.9048 6.19049 23.381L10.4762 38.6191H15.6191L18 32.9048Z" fill="#E7E7E9"/>
<path d="M26.8571 38.6192L22.7619 34.4287L22 38.6192H26.8571Z" fill="#E7E7E9"/>
<path d="M37.8095 32.7142C38.1905 33.0952 38.3809 33.3809 38.2857 33.7619C38.2857 34.9047 36.7619 35.4761 35.4286 35.4761C33.5238 35.4761 32.4762 35.1904 30.8571 34.5238L30.1905 34.238L29.5238 38.1428C30.6667 38.619 32.7619 39.0952 34.9524 39.0952C38 39.0952 40.4762 38.238 41.9048 36.7142L37.8095 32.7142Z" fill="#E7E7E9"/>
<path d="M43.3334 38.619H47.8096L48.7619 35.7619H54.8572L55.4286 38.619H60L58.381 31.6666L52.6667 26.1428L52.9524 27.6666C52.9524 27.6666 53.9048 31.9523 54.0953 32.9047H50.0953C50.4762 31.9523 52 27.8571 52 27.8571C52 27.8571 52.381 26.8095 52.6667 26.1428" fill="#E7E7E9"/>
</g>
<defs>
<clipPath id="clip0">
<rect width="60" height="60" fill="white"/>
</clipPath>
</defs>
</svg>
